<?xml version="1.0" encoding="utf-8"?>
<!-- Generator: Adobe Illustrator 25.4.2, SVG Export Plug-In . SVG Version: 6.00 Build 0)  -->
<svg version="1.1" id="Layer_1" xmlns="http://www.w3.org/2000/svg" xmlns:xlink="http://www.w3.org/1999/xlink" x="0px" y="0px"
	 viewBox="0 0 125.8 27.6" style="enable-background:new 0 0 125.8 27.6;" xml:space="preserve">
<style type="text/css">
	.st0{enable-background:new    ;}
	.st1{fill:#922B07;}
</style>
<g class="st0">
	<path class="st1" d="M32.1,10.1V1.9h3.1c0.7,0,1.2,0.1,1.6,0.4c0.5,0.3,0.7,0.8,0.7,1.4c0,0.5-0.2,1-0.6,1.3
		c-0.4,0.3-0.8,0.5-1.4,0.6v0.1c0.6,0.1,1,0.2,1.4,0.5c0.5,0.4,0.8,0.9,0.8,1.5c0,0.8-0.3,1.4-0.9,1.8c-0.5,0.4-1.2,0.6-2,0.6H32.1z
		 M33.9,2.6v2.8h0.4c0.2,0,0.4,0,0.6-0.1c0.2,0,0.3-0.1,0.4-0.2c0.2-0.2,0.3-0.3,0.4-0.5s0.1-0.4,0.1-0.7c0-0.4-0.1-0.7-0.3-1
		c-0.2-0.2-0.5-0.3-0.9-0.3C34.3,2.6,34.1,2.6,33.9,2.6z M33.9,6.1v3.3h0.6c0.4,0,0.7-0.1,1-0.4c0.3-0.3,0.4-0.7,0.4-1.1
		c0-0.6-0.2-1.1-0.5-1.3C35,6.3,34.5,6.1,33.9,6.1z"/>
	<path class="st1" d="M43.6,5.8v3.3c0,0.2,0,0.4,0.1,0.5s0.2,0.1,0.5,0.1V10c-0.2,0.1-0.3,0.1-0.5,0.2c-0.2,0.1-0.4,0.1-0.5,0.1
		c-0.3,0-0.5-0.1-0.7-0.2c-0.2-0.2-0.4-0.4-0.5-0.6c-0.2,0.3-0.4,0.5-0.6,0.6c-0.3,0.2-0.6,0.2-0.9,0.2c-0.5,0-0.9-0.1-1.2-0.4
		c-0.3-0.3-0.5-0.7-0.5-1.2s0.2-0.9,0.5-1.2c0.3-0.2,0.8-0.4,1.7-0.6c0.2,0,0.3-0.1,0.4-0.1c0.2-0.1,0.3-0.1,0.4-0.2
		c0.1-0.1,0.1-0.1,0.1-0.2s0-0.2,0-0.3c0-0.3-0.1-0.5-0.4-0.7C41.4,5.1,41.1,5,40.8,5s-0.7,0.1-1,0.3c-0.3,0.2-0.4,0.3-0.5,0.5h-0.1
		L39.1,5c0.3-0.2,0.6-0.4,1-0.6s0.8-0.2,1.2-0.2c0.6,0,1.1,0.1,1.5,0.3C43.4,4.9,43.6,5.3,43.6,5.8z M42,8.2V7
		c-0.2,0.1-0.4,0.2-0.6,0.2c-0.3,0.1-0.5,0.2-0.6,0.3c-0.1,0.1-0.2,0.3-0.3,0.4c-0.1,0.2-0.1,0.4-0.1,0.6c0,0.3,0.1,0.5,0.2,0.7
		c0.1,0.2,0.3,0.3,0.5,0.3c0.3,0,0.6-0.1,0.7-0.4C41.9,8.8,42,8.5,42,8.2z"/>
	<path class="st1" d="M45.1,10.1V4.3c0.1,0,0.3,0,0.4,0c0.2,0,0.3,0,0.4,0c0.2,0,0.3,0,0.5,0c0.1,0,0.2,0,0.3,0v0.9
		c0.3-0.3,0.5-0.5,0.8-0.7s0.7-0.3,1-0.3c0.7,0,1.2,0.2,1.5,0.7c0.3,0.4,0.4,1,0.4,1.8v3.5c-0.1,0-0.2,0-0.3,0c-0.3,0-0.5,0-0.5,0
		c-0.2,0-0.3,0-0.5,0c-0.1,0-0.3,0-0.3,0v-3c0-0.6-0.1-1.1-0.2-1.4c-0.2-0.4-0.4-0.6-0.8-0.6c-0.5,0-0.8,0.3-0.9,0.8
		c-0.1,0.3-0.1,0.8-0.1,1.4v2.8c-0.1,0-0.2,0-0.3,0c-0.3,0-0.5,0-0.5,0c-0.2,0-0.3,0-0.5,0C45.3,10.1,45.2,10.1,45.1,10.1z"/>
	<path class="st1" d="M55.6,5.4V4.3c0.1,0,0.3,0,0.4,0c0.2,0,0.3,0,0.4,0c0.2,0,0.3,0,0.5,0c0.1,0,0.2,0,0.3,0v8.9
		c-0.1,0-0.2,0-0.3,0c-0.3,0-0.5,0-0.5,0c-0.2,0-0.3,0-0.5,0c-0.1,0-0.3,0-0.3,0V9.4C55.4,9.6,55.3,9.8,55,10
		c-0.3,0.2-0.6,0.3-1,0.3c-0.7,0-1.3-0.3-1.8-0.8s-0.6-1.3-0.6-2.1c0-1,0.2-1.7,0.5-2.2c0.4-0.6,1-0.9,1.7-0.9
		C54.7,4.2,55.2,4.6,55.6,5.4z M53.3,7.2c0,0.1,0,0.2,0,0.3s0,0.2,0,0.5s0.1,0.7,0.3,0.9c0.2,0.3,0.5,0.5,0.8,0.5
		c0.4,0,0.7-0.3,0.9-0.8c0.1-0.4,0.2-0.8,0.2-1.3c0-0.6-0.1-1.1-0.2-1.5c-0.2-0.6-0.5-0.9-1-0.9c-0.4,0-0.7,0.3-0.9,0.8
		C53.4,6.2,53.3,6.6,53.3,7.2z"/>
	<path class="st1" d="M63.7,4.3v5.8c-0.2,0-0.3,0-0.5,0c-0.1,0-0.2,0-0.3,0c-0.2,0-0.3,0-0.5,0c-0.1,0-0.2,0-0.3,0V9.3
		c-0.3,0.4-0.6,0.6-0.8,0.7c-0.3,0.2-0.6,0.3-1,0.3c-0.3,0-0.6-0.1-0.9-0.2c-0.3-0.1-0.5-0.3-0.7-0.6c-0.1-0.2-0.2-0.4-0.2-0.6
		c0-0.2-0.1-0.5-0.1-0.8V7.7V4.3c0.1,0,0.3,0,0.5,0s0.3,0,0.4,0c0.2,0,0.3,0,0.5,0c0.1,0,0.3,0,0.3,0v3.3c0,0.3,0,0.5,0,0.6
		s0,0.3,0.1,0.4c0.1,0.2,0.2,0.4,0.3,0.5s0.3,0.2,0.5,0.2c0.5,0,0.8-0.2,0.9-0.6C62,8.4,62.1,8,62.1,7.5V4.3c0.1,0,0.3,0,0.5,0
		s0.3,0,0.4,0c0.2,0,0.3,0,0.5,0C63.5,4.3,63.6,4.3,63.7,4.3z"/>
	<path class="st1" d="M70.1,7.2h-3.4c0,0.7,0.1,1.2,0.3,1.6c0.3,0.4,0.7,0.6,1.3,0.6c0.2,0,0.5,0,0.7-0.1s0.5-0.2,0.7-0.4L69.9,9
		l-0.3,0.7c-0.5,0.4-1.1,0.5-1.7,0.5c-1,0-1.7-0.3-2.2-0.8s-0.8-1.3-0.8-2.3c0-0.9,0.2-1.5,0.7-2.1c0.5-0.5,1.2-0.8,2-0.8
		c0.9,0,1.5,0.3,1.9,0.9C69.9,5.6,70.1,6.3,70.1,7.2z M66.7,6.7h1.8c0-0.5,0-0.9-0.1-1.2C68.2,5,68,4.8,67.6,4.8S66.9,5,66.8,5.5
		C66.7,5.8,66.7,6.2,66.7,6.7z"/>
	<path class="st1" d="M79.8,1v9.1c-0.2,0-0.3,0-0.5,0c-0.1,0-0.2,0-0.3,0c-0.2,0-0.3,0-0.5,0c-0.1,0-0.2,0-0.3,0v-1
		c-0.3,0.8-0.8,1.2-1.6,1.2c-0.8,0-1.4-0.3-1.8-0.9c-0.3-0.5-0.5-1.2-0.5-2.1c0-0.8,0.2-1.5,0.6-2.1s1-0.9,1.8-0.9
		c0.4,0,0.7,0.1,1,0.2s0.5,0.4,0.7,0.7V1c0.1,0,0.3,0,0.5,0s0.3,0,0.4,0C79.5,1,79.6,1,79.8,1C79.6,1,79.7,1,79.8,1z M77.1,5
		c-0.5,0-0.8,0.3-1,0.9c-0.1,0.4-0.2,0.9-0.2,1.4c0,0.6,0.1,1,0.2,1.4c0.2,0.6,0.5,0.8,0.9,0.8c0.5,0,0.8-0.3,1-0.9
		c0.1-0.4,0.2-0.9,0.2-1.5c0-0.5-0.1-1-0.2-1.3C77.8,5.3,77.5,5,77.1,5z"/>
	<path class="st1" d="M86.4,4.3v5.8c-0.2,0-0.3,0-0.5,0c-0.1,0-0.2,0-0.3,0c-0.2,0-0.3,0-0.5,0c-0.1,0-0.2,0-0.3,0V9.3
		C84.5,9.6,84.2,9.9,84,10c-0.3,0.2-0.6,0.3-1,0.3c-0.3,0-0.6-0.1-0.9-0.2s-0.5-0.3-0.7-0.6c-0.1-0.2-0.2-0.4-0.2-0.6
		c0-0.2-0.1-0.5-0.1-0.8V7.7V4.3c0.1,0,0.3,0,0.5,0s0.3,0,0.4,0c0.2,0,0.3,0,0.5,0c0.1,0,0.3,0,0.3,0v3.3c0,0.3,0,0.5,0,0.6
		s0,0.3,0.1,0.4C83,8.8,83.1,9,83.2,9.1c0.1,0.1,0.3,0.2,0.5,0.2c0.5,0,0.8-0.2,0.9-0.6c0.1-0.2,0.1-0.6,0.1-1.2V4.3
		c0.1,0,0.3,0,0.5,0s0.3,0,0.4,0c0.2,0,0.3,0,0.5,0C86.2,4.3,86.3,4.3,86.4,4.3z"/>
	<path class="st1" d="M91.1,13.2V4.3c0.1,0,0.3,0,0.4,0c0.2,0,0.3,0,0.4,0c0.2,0,0.3,0,0.5,0c0.1,0,0.2,0,0.3,0v1.1
		c0.1-0.4,0.4-0.7,0.6-0.9c0.3-0.2,0.6-0.3,1-0.3c0.8,0,1.4,0.3,1.8,0.9c0.4,0.5,0.5,1.2,0.5,2c0,1-0.2,1.8-0.7,2.4
		c-0.4,0.5-1,0.8-1.7,0.8c-0.4,0-0.7-0.1-0.9-0.2c-0.2-0.2-0.5-0.4-0.6-0.6v3.8c-0.1,0-0.2,0-0.3,0c-0.3,0-0.5,0-0.5,0
		c-0.2,0-0.3,0-0.5,0C91.3,13.2,91.2,13.2,91.1,13.2z M93.8,9.5c0.4,0,0.7-0.3,0.8-0.6c0.3-0.5,0.4-1,0.4-1.6c0-0.7-0.1-1.3-0.2-1.6
		C94.6,5.2,94.3,5,93.9,5c-0.5,0-0.8,0.3-1,0.9c-0.1,0.4-0.2,0.9-0.2,1.5s0.1,1,0.2,1.3C93.1,9.2,93.4,9.5,93.8,9.5z"/>
	<path class="st1" d="M102.8,7.2h-3.4c0,0.7,0.1,1.2,0.3,1.6c0.3,0.4,0.7,0.6,1.3,0.6c0.2,0,0.5,0,0.7-0.1s0.5-0.2,0.7-0.4l0.1,0.1
		l-0.3,0.7c-0.5,0.4-1.1,0.5-1.7,0.5c-1,0-1.7-0.3-2.2-0.8s-0.8-1.3-0.8-2.3c0-0.9,0.2-1.5,0.7-2.1c0.5-0.5,1.2-0.8,2-0.8
		c0.9,0,1.5,0.3,1.9,0.9C102.6,5.6,102.8,6.3,102.8,7.2z M99.3,6.7h1.8c0-0.5,0-0.9-0.1-1.2c-0.1-0.5-0.4-0.7-0.7-0.7
		c-0.4,0-0.7,0.2-0.8,0.7C99.4,5.8,99.3,6.2,99.3,6.7z"/>
	<path class="st1" d="M109.1,4.3v5.8c-0.2,0-0.3,0-0.5,0c-0.1,0-0.2,0-0.3,0c-0.2,0-0.3,0-0.5,0c-0.1,0-0.2,0-0.3,0V9.3
		c-0.3,0.4-0.6,0.6-0.8,0.7c-0.3,0.2-0.6,0.3-1,0.3c-0.3,0-0.6-0.1-0.9-0.2c-0.3-0.1-0.5-0.3-0.7-0.6c-0.1-0.2-0.2-0.4-0.2-0.6
		c0-0.2-0.1-0.5-0.1-0.8V7.7V4.3c0.1,0,0.3,0,0.5,0s0.3,0,0.4,0c0.2,0,0.3,0,0.5,0c0.1,0,0.3,0,0.3,0v3.3c0,0.3,0,0.5,0,0.6
		s0,0.3,0.1,0.4c0.1,0.2,0.2,0.4,0.3,0.5c0.1,0.1,0.3,0.2,0.5,0.2c0.5,0,0.8-0.2,0.9-0.6c0.1-0.2,0.1-0.6,0.1-1.2V4.3
		c0.1,0,0.3,0,0.5,0s0.3,0,0.4,0c0.2,0,0.3,0,0.5,0C108.9,4.3,109,4.3,109.1,4.3z"/>
	<path class="st1" d="M110.5,13.2V4.3c0.1,0,0.3,0,0.4,0c0.2,0,0.3,0,0.4,0c0.2,0,0.3,0,0.5,0c0.1,0,0.2,0,0.3,0v1.1
		c0.1-0.4,0.4-0.7,0.6-0.9c0.3-0.2,0.6-0.3,1-0.3c0.8,0,1.4,0.3,1.8,0.9c0.4,0.5,0.5,1.2,0.5,2c0,1-0.2,1.8-0.7,2.4
		c-0.4,0.5-1,0.8-1.7,0.8c-0.4,0-0.7-0.1-0.9-0.2c-0.2-0.2-0.4-0.4-0.6-0.6v3.8c-0.1,0-0.2,0-0.3,0c-0.3,0-0.5,0-0.5,0
		c-0.2,0-0.3,0-0.5,0C110.7,13.2,110.6,13.2,110.5,13.2z M113.2,9.5c0.4,0,0.7-0.3,0.8-0.6c0.2-0.4,0.3-0.9,0.3-1.6
		s-0.1-1.3-0.2-1.6c-0.2-0.4-0.4-0.6-0.8-0.6c-0.5,0-0.8,0.3-1,0.9c-0.1,0.4-0.2,0.9-0.2,1.5s0.1,1,0.2,1.3
		C112.4,9.2,112.7,9.5,113.2,9.5z"/>
	<path class="st1" d="M119,1v9.1c-0.1,0-0.2,0-0.3,0c-0.3,0-0.5,0-0.5,0c-0.2,0-0.3,0-0.5,0c-0.1,0-0.3,0-0.3,0V1c0.1,0,0.3,0,0.5,0
		s0.3,0,0.4,0c0.2,0,0.3,0,0.5,0C118.8,1,118.9,1,119,1z"/>
	<path class="st1" d="M125.5,7.2H122c0,0.7,0.1,1.2,0.3,1.6c0.3,0.4,0.7,0.6,1.3,0.6c0.2,0,0.5,0,0.7-0.1s0.5-0.2,0.7-0.4l0.1,0.1
		L125,9.7c-0.5,0.4-1.1,0.5-1.7,0.5c-1,0-1.7-0.3-2.2-0.8s-0.8-1.3-0.8-2.3c0-0.9,0.2-1.5,0.7-2.1c0.5-0.5,1.2-0.8,2-0.8
		c0.9,0,1.5,0.3,1.9,0.9C125.3,5.6,125.5,6.3,125.5,7.2z M122,6.7h1.8c0-0.5,0-0.9-0.1-1.2c-0.1-0.5-0.4-0.7-0.7-0.7
		c-0.4,0-0.7,0.2-0.8,0.7C122.1,5.8,122,6.2,122,6.7z"/>
</g>
<g class="st0">
	<path class="st1" d="M32.1,16.3h4.1c1.2,0,2.1,0.4,2.8,1.2c0.6,0.7,0.9,1.6,0.9,2.7c0,1.3-0.4,2.4-1.3,3.2
		c-0.8,0.8-1.8,1.1-3.1,1.1h-3.4V16.3z M33.9,17v6.8h1c0.9,0,1.6-0.3,2.1-0.8c0.6-0.6,0.8-1.6,0.8-2.9c0-1.1-0.2-1.9-0.7-2.4
		S36,17,35.1,17H33.9z"/>
	<path class="st1" d="M46.1,21.6h-3.4c0,0.7,0.1,1.2,0.3,1.6c0.3,0.4,0.7,0.6,1.3,0.6c0.2,0,0.5,0,0.7-0.1s0.5-0.2,0.7-0.4l0.1,0.1
		l-0.3,0.7c-0.5,0.4-1.1,0.5-1.7,0.5c-1,0-1.7-0.3-2.2-0.8c-0.5-0.6-0.8-1.3-0.8-2.3c0-0.9,0.2-1.5,0.7-2.1c0.5-0.5,1.2-0.8,2-0.8
		c0.9,0,1.5,0.3,1.9,0.9C45.9,20,46.1,20.7,46.1,21.6z M42.6,21.1h1.8c0-0.5,0-0.9-0.1-1.2c-0.1-0.5-0.4-0.7-0.7-0.7
		c-0.4,0-0.7,0.2-0.8,0.7C42.7,20.2,42.6,20.6,42.6,21.1z"/>
	<path class="st1" d="M47,23h0.3c0.1,0.3,0.3,0.6,0.5,0.7c0.2,0.2,0.5,0.3,0.8,0.3c0.2,0,0.4-0.1,0.6-0.2c0.2-0.1,0.3-0.3,0.3-0.5
		c0-0.3-0.2-0.5-0.7-0.8c-0.8-0.4-1.2-0.6-1.3-0.6c-0.5-0.3-0.7-0.8-0.7-1.4s0.2-1.1,0.6-1.4c0.4-0.3,0.9-0.5,1.5-0.5
		c0.3,0,0.6,0,0.9,0.2c0.3,0.1,0.6,0.2,0.8,0.4l-0.3,1.1H50c0-0.3-0.2-0.5-0.4-0.7s-0.5-0.3-0.7-0.3s-0.4,0.1-0.6,0.2
		C48.1,19.6,48,19.8,48,20c0,0.3,0.2,0.5,0.7,0.7c0.8,0.3,1.2,0.5,1.4,0.6c0.5,0.3,0.7,0.8,0.7,1.5c0,0.6-0.2,1-0.6,1.4
		c-0.4,0.4-1,0.5-1.7,0.5c-0.6,0-1.2-0.2-1.7-0.5L47,23z"/>
	<path class="st1" d="M56.9,19.2l-0.5,1.2h-0.3c0-0.4-0.2-0.7-0.4-0.9c-0.2-0.2-0.5-0.4-0.9-0.4c-0.5,0-0.9,0.3-1.2,0.8
		c-0.2,0.4-0.3,0.9-0.3,1.5c0,0.8,0.1,1.3,0.4,1.7c0.3,0.4,0.8,0.6,1.4,0.6c0.2,0,0.5,0,0.7-0.1s0.4-0.2,0.6-0.4l0.2,0.2l-0.3,0.7
		c-0.1,0.1-0.4,0.2-0.7,0.3c-0.3,0.1-0.6,0.1-0.9,0.1c-1,0-1.7-0.2-2.3-0.7s-0.9-1.2-0.9-2.2s0.3-1.7,0.9-2.3
		c0.6-0.6,1.3-0.8,2.3-0.8c0.4,0,0.8,0,1.1,0.1C56.3,18.8,56.6,19,56.9,19.2z"/>
	<path class="st1" d="M60.4,24.7c-0.9,0-1.6-0.3-2.1-0.8s-0.8-1.2-0.8-2.1c0-1,0.3-1.7,0.8-2.3c0.5-0.6,1.2-0.9,2.2-0.9
		c0.9,0,1.6,0.3,2.2,0.8c0.5,0.5,0.8,1.2,0.8,2.1s-0.3,1.7-0.8,2.3C62.1,24.4,61.3,24.7,60.4,24.7z M60.5,19.2c-0.4,0-0.8,0.2-1,0.7
		c-0.2,0.4-0.3,1-0.3,1.8c0,0.6,0.1,1.1,0.2,1.5c0.2,0.6,0.5,0.9,1,0.9c0.4,0,0.7-0.3,0.9-0.9c0.2-0.5,0.3-1.1,0.3-1.9
		c0-0.6-0.1-1.2-0.2-1.5C61.2,19.4,60.9,19.2,60.5,19.2z"/>
	<path class="st1" d="M69.7,18.7v5.8c-0.2,0-0.3,0-0.5,0c-0.1,0-0.2,0-0.3,0c-0.2,0-0.3,0-0.5,0c-0.1,0-0.2,0-0.3,0v-0.9
		c-0.3,0.4-0.6,0.6-0.8,0.7c-0.3,0.2-0.6,0.3-1,0.3c-0.3,0-0.6-0.1-0.9-0.2s-0.5-0.3-0.7-0.6c-0.1-0.2-0.2-0.4-0.2-0.6
		s-0.1-0.5-0.1-0.8v-0.5v-3.3c0.1,0,0.3,0,0.5,0s0.3,0,0.4,0c0.2,0,0.3,0,0.5,0c0.1,0,0.3,0,0.3,0V22c0,0.3,0,0.5,0,0.6
		s0,0.3,0.1,0.4c0.1,0.2,0.2,0.4,0.3,0.5c0.1,0.1,0.3,0.2,0.5,0.2c0.5,0,0.8-0.2,0.9-0.6c0.1-0.2,0.1-0.6,0.1-1.2v-3.1
		c0.1,0,0.3,0,0.5,0s0.3,0,0.4,0c0.2,0,0.3,0,0.5,0C69.5,18.8,69.6,18.7,69.7,18.7z"/>
	<path class="st1" d="M71.3,24.5v-5.8c0.1,0,0.3,0,0.5,0s0.3,0,0.4,0c0.2,0,0.3,0,0.5,0c0.1,0,0.3,0,0.3,0v1.5
		c0.1-0.5,0.4-0.9,0.6-1.1c0.3-0.3,0.8-0.5,1.3-0.5c0,0.2,0,0.5,0,0.8s0,0.6,0,0.9l-0.1,0.1c-0.1-0.1-0.2-0.1-0.3-0.1
		c-0.1,0-0.2,0-0.3,0c-0.3,0-0.5,0.1-0.7,0.2s-0.3,0.3-0.4,0.6c0,0.1-0.1,0.2-0.1,0.4s0,0.3,0,0.5v0.5v2.2c-0.1,0-0.2,0-0.3,0
		c-0.3,0-0.5,0-0.5,0c-0.2,0-0.3,0-0.5,0C71.5,24.5,71.3,24.5,71.3,24.5z"/>
	<path class="st1" d="M75.7,23H76c0.1,0.3,0.3,0.6,0.5,0.7C76.7,24,77,24,77.3,24c0.2,0,0.4-0.1,0.6-0.2s0.3-0.3,0.3-0.5
		c0-0.3-0.2-0.5-0.7-0.8c-0.8-0.4-1.2-0.6-1.3-0.6c-0.5-0.3-0.7-0.8-0.7-1.4s0.2-1.1,0.6-1.4s0.9-0.5,1.5-0.5c0.3,0,0.6,0,0.9,0.2
		c0.3,0.1,0.6,0.2,0.8,0.4l-0.3,1h-0.3c0-0.3-0.2-0.5-0.4-0.7c-0.2-0.2-0.5-0.3-0.7-0.3s-0.4,0.1-0.6,0.2s-0.3,0.3-0.3,0.5
		c0,0.3,0.2,0.5,0.7,0.7c0.8,0.3,1.2,0.5,1.4,0.6c0.5,0.3,0.7,0.8,0.7,1.5c0,0.6-0.2,1-0.6,1.4s-1,0.5-1.7,0.5
		c-0.6,0-1.2-0.2-1.7-0.5L75.7,23z"/>
</g>
<path class="st1" d="M19.4,2.2H6.5L0,13.4l6.5,11.1h12.9l6.4-11.1L19.4,2.2z M18.1,22.4H7.7l-5.2-9l5.2-9h10.4l5.2,9L18.1,22.4z"/>
</svg>
