<?xml version="1.0" encoding="utf-8"?>
<!-- Generator: Adobe Illustrator 26.0.2, SVG Export Plug-In . SVG Version: 6.00 Build 0)  -->
<svg version="1.1" id="Layer_1" xmlns="http://www.w3.org/2000/svg" xmlns:xlink="http://www.w3.org/1999/xlink" x="0px" y="0px"
	 viewBox="0 0 25.8 29.8" style="enable-background:new 0 0 25.8 29.8;" xml:space="preserve">
<style type="text/css">
	.st0{fill:#003E72;}
	.st1{enable-background:new    ;}
	.st2{fill:#FFFFFF;}
</style>
<g>
	<rect y="7.6" class="st0" width="25.8" height="22.2"/>
	<polygon class="st0" points="25.8,22.4 12.9,29.8 0,22.4 0,7.4 12.9,0 25.8,7.4 	"/>
</g>
<g class="st1">
	<path class="st2" d="M2.7,15.8c-0.1,0-0.1,0-0.2,0c0,0,0,0-0.1,0c-0.1,0-0.2-0.1-0.2-0.2c0-0.1,0.1-0.2,0.2-0.2
		c0.1,0,0.2-0.1,0.2-0.1c0,0,0-0.1,0-0.2v-3.9c0-0.1,0-0.2,0-0.2c0,0-0.1-0.1-0.2-0.1c-0.1,0-0.2-0.1-0.2-0.2c0-0.1,0.1-0.2,0.2-0.2
		c0,0,0.1,0,0.1,0c0,0,0.1,0,0.2,0h1.8c0.2,0,0.3,0,0.3,0s0.1,0.1,0.1,0.2c0,0.1,0,0.1,0,0.1c0,0-0.1,0.1-0.2,0.1
		c-0.1,0-0.1,0.1-0.1,0.3V15c0,0.1,0,0.2,0,0.2c0,0,0.1,0.1,0.2,0.1c0.1,0,0.1,0.1,0.1,0.2c0,0.1,0,0.1-0.1,0.2s-0.2,0-0.3,0H2.7z
		 M5.4,12.8v-1.7c0-0.1,0-0.2,0-0.2s-0.1-0.1-0.2-0.1C5,10.8,5,10.7,5,10.6c0-0.1,0-0.1,0.1-0.2c0.1,0,0.2,0,0.3,0h1.8
		c0.1,0,0.1,0,0.2,0c0,0,0,0,0.1,0c0.1,0,0.2,0.1,0.2,0.2c0,0.1-0.1,0.2-0.2,0.2c-0.1,0-0.2,0.1-0.2,0.1c0,0,0,0.1,0,0.2V15
		c0,0.1,0,0.2,0,0.2c0,0,0.1,0.1,0.2,0.1c0.1,0,0.2,0.1,0.2,0.2c0,0.1-0.1,0.2-0.2,0.2c0,0-0.1,0-0.1,0c0,0-0.1,0-0.2,0H5.4
		c-0.1,0-0.1,0-0.2,0c0,0,0,0-0.1,0C5,15.7,5,15.7,5,15.6c0-0.1,0-0.1,0-0.1c0,0,0.1-0.1,0.2-0.1c0.1,0,0.1-0.1,0.1-0.3v-1.8H4.7
		v-0.4H5.4z"/>
	<path class="st2" d="M10.3,10.7c-0.1,0-0.2,0.1-0.3,0.2C10,11,9.9,11.1,9.9,11.3v3.5c0,0.2,0,0.4,0.1,0.5c0.1,0.1,0.1,0.2,0.3,0.2
		v0.4c-0.3,0-0.6-0.1-0.9-0.3c-0.3-0.1-0.5-0.3-0.7-0.6c-0.2-0.2-0.3-0.5-0.4-0.9s-0.2-0.7-0.2-1.1c0-0.4,0.1-0.8,0.2-1.1
		c0.1-0.3,0.3-0.6,0.5-0.9c0.2-0.2,0.4-0.4,0.7-0.6c0.3-0.1,0.6-0.2,0.9-0.2V10.7z M10.6,10.3c0.3,0,0.6,0.1,0.9,0.2
		c0.3,0.1,0.5,0.3,0.7,0.6s0.3,0.5,0.5,0.9c0.1,0.3,0.2,0.7,0.2,1.1c0,0.4-0.1,0.8-0.2,1.1s-0.3,0.6-0.4,0.9
		c-0.2,0.2-0.4,0.4-0.7,0.6c-0.3,0.1-0.6,0.2-0.9,0.3v-0.4c0.1,0,0.2-0.1,0.3-0.2c0.1-0.1,0.1-0.2,0.1-0.5v-3.5c0-0.2,0-0.3-0.1-0.4
		c-0.1-0.1-0.1-0.1-0.3-0.2V10.3z"/>
	<path class="st2" d="M16.1,12.6l0.3-1.2v1.3l-0.9,3h-0.2l-1.5-4.5c-0.1-0.1-0.1-0.2-0.1-0.3s-0.1-0.1-0.2-0.1
		c-0.2,0-0.3-0.1-0.3-0.2c0-0.1,0.1-0.2,0.3-0.2h1.8L16.1,12.6z M14.2,13.4v1.2c0,0.1,0,0.2,0,0.3c0,0.1,0,0.1,0.1,0.2
		c0,0,0,0,0,0.1c0,0,0,0,0.1,0.1s0,0,0.1,0.1c0,0,0.1,0.1,0.1,0.1c0.1,0.1,0.1,0.1,0.1,0.2c0,0.1-0.1,0.2-0.3,0.2h-1
		c-0.2,0-0.3-0.1-0.3-0.2c0,0,0-0.1,0-0.1c0,0,0.1,0,0.1-0.1c0.3-0.2,0.4-0.4,0.4-0.8v-2.4L14.2,13.4z M18.5,10.4c0.1,0,0.1,0,0.2,0
		c0,0,0,0,0.1,0c0.1,0,0.2,0.1,0.2,0.2c0,0.1-0.1,0.2-0.2,0.2c-0.1,0-0.2,0.1-0.2,0.1c0,0,0,0.1,0,0.2V15c0,0.1,0,0.2,0,0.2
		c0,0,0.1,0.1,0.2,0.1c0.1,0,0.2,0.1,0.2,0.2c0,0.1-0.1,0.2-0.2,0.2c0,0-0.1,0-0.1,0c0,0-0.1,0-0.2,0h-1.8c-0.1,0-0.2,0-0.2,0
		c0,0-0.1,0-0.1,0c-0.1,0-0.1,0-0.1-0.1c0,0-0.1-0.1-0.1-0.1c0-0.1,0.1-0.2,0.2-0.2c0.1,0,0.2-0.1,0.2-0.1c0,0,0-0.1,0-0.2v-4.6
		H18.5z"/>
	<path class="st2" d="M21.7,15.8H20c-0.1,0-0.1,0-0.2,0s0,0-0.1,0c-0.1,0-0.2-0.1-0.2-0.2c0-0.1,0.1-0.2,0.2-0.2
		c0.1,0,0.2-0.1,0.2-0.1s0-0.1,0-0.2v-3.9c0-0.1,0-0.2,0-0.2s-0.1-0.1-0.2-0.1c-0.1,0-0.2-0.1-0.2-0.2c0-0.1,0.1-0.2,0.2-0.2
		c0,0,0.1,0,0.1,0s0.1,0,0.2,0h1.8V15.8z M23.6,10.4v1.4c0,0.2-0.1,0.2-0.2,0.2c-0.1,0-0.1,0-0.1,0s-0.1-0.1-0.1-0.1
		c-0.2-0.6-0.6-0.9-1.2-1v-0.5H23.6z M22,12.8c0.1-0.1,0.3-0.1,0.3-0.2c0.1-0.1,0.1-0.2,0.2-0.3c0-0.1,0.1-0.2,0.1-0.2
		c0,0,0.1-0.1,0.1-0.1c0.1,0,0.1,0,0.2,0.1c0,0,0,0.1,0,0.3v1.5c0,0.1,0,0.2,0,0.3c0,0-0.1,0.1-0.2,0.1c-0.1,0-0.1,0-0.1-0.1
		c0,0-0.1-0.1-0.1-0.2c-0.1-0.4-0.3-0.6-0.5-0.6V12.8z M22,15.3c0.3,0,0.5-0.1,0.8-0.3c0.2-0.2,0.4-0.4,0.5-0.7
		c0-0.1,0.1-0.1,0.1-0.2s0.1,0,0.1,0c0.1,0,0.1,0,0.2,0.1c0,0,0,0.1,0,0.2v1.4H22V15.3z"/>
</g>
<g class="st1">
	<path class="st2" d="M5,24.6c0,0.1,0,0.2,0,0.2c0,0,0.1,0.1,0.2,0.1c0.1,0,0.2,0.1,0.2,0.2c0,0.1,0,0.1-0.1,0.1s-0.1,0.1-0.1,0.1
		c0,0-0.1,0-0.1,0c0,0-0.1,0-0.2,0H3.3c-0.1,0-0.1,0-0.2,0c0,0,0,0-0.1,0c-0.1,0-0.2-0.1-0.2-0.2C2.9,25,2.9,25,3,24.9
		c0.1,0,0.2-0.1,0.2-0.1c0,0,0-0.1,0-0.2v-3.9c0-0.1,0-0.2,0-0.2c0,0-0.1-0.1-0.2-0.1c-0.1,0-0.2-0.1-0.2-0.2c0-0.1,0.1-0.2,0.2-0.2
		c0,0,0.1,0,0.1,0c0,0,0.1,0,0.2,0H5V24.6z M5.3,20c0.2,0,0.4,0,0.5,0c0.1,0,0.3,0,0.3,0c0.1,0,0.2,0,0.2,0s0.1,0,0.2,0.1
		c0.6,0.2,0.8,0.6,0.8,1.2c0,0.2,0,0.4-0.1,0.6S7.2,22.3,7,22.4c0,0-0.1,0.1-0.1,0.1s-0.1,0.1-0.2,0.1s-0.1,0.1-0.2,0.1
		c-0.1,0-0.2,0.1-0.3,0.1c0.2,0,0.4,0.1,0.5,0.1c0.1,0,0.2,0.1,0.3,0.1c0.1,0.1,0.2,0.2,0.3,0.3c0.1,0.1,0.1,0.3,0.1,0.4v0.8
		c0,0.1,0,0.1,0.1,0.1c0,0,0.1,0,0.1-0.1c0.1-0.1,0.1-0.1,0.2-0.1c0,0,0.1,0,0.1,0.1c0,0,0.1,0.1,0.1,0.1c0,0,0,0.1,0,0.2
		S7.9,24.9,7.9,25c0,0.1-0.1,0.1-0.2,0.2c-0.1,0.1-0.1,0.1-0.2,0.2c-0.2,0.1-0.4,0.2-0.7,0.2c-0.3,0-0.6-0.1-0.8-0.3
		c-0.2-0.2-0.3-0.5-0.3-0.8v-0.7c0-0.2,0-0.4-0.1-0.5C5.6,23.1,5.5,23,5.3,23v-0.4c0.2,0,0.3-0.1,0.3-0.2c0.1-0.1,0.1-0.2,0.1-0.4
		v-1c0-0.2,0-0.3-0.1-0.4s-0.2-0.1-0.3-0.2V20z"/>
	<path class="st2" d="M10.6,25.4H8.9c-0.1,0-0.1,0-0.2,0c0,0,0,0-0.1,0c-0.1,0-0.2-0.1-0.2-0.2c0-0.1,0.1-0.2,0.2-0.2
		c0.1,0,0.2-0.1,0.2-0.1c0,0,0-0.1,0-0.2v-3.9c0-0.1,0-0.2,0-0.2c0,0-0.1-0.1-0.2-0.1c-0.1,0-0.2-0.1-0.2-0.2c0-0.1,0.1-0.2,0.2-0.2
		c0,0,0.1,0,0.1,0c0,0,0.1,0,0.2,0h1.8V25.4z M10.6,19.6C10.5,19.6,10.5,19.6,10.6,19.6c-0.1,0.1-0.1,0.1-0.1,0.1c0,0,0,0,0,0
		c0,0,0,0,0,0h-0.3c-0.1,0-0.1,0-0.1-0.1c0,0,0,0,0,0l0.6-0.9c0-0.1,0.1-0.1,0.1-0.1s0.1,0,0.2,0h0.8c0.1,0,0.1,0,0.1,0.1
		c0,0,0,0,0,0c0,0,0,0-0.1,0.1L10.6,19.6z M12.5,20v1.4c0,0.2-0.1,0.2-0.2,0.2c-0.1,0-0.1,0-0.1,0c0,0-0.1-0.1-0.1-0.1
		c-0.2-0.6-0.6-0.9-1.2-1V20H12.5z M10.9,22.4c0.1-0.1,0.3-0.1,0.3-0.2c0.1-0.1,0.1-0.2,0.2-0.3c0-0.1,0.1-0.2,0.1-0.2
		c0,0,0.1-0.1,0.1-0.1c0.1,0,0.1,0,0.2,0.1c0,0,0,0.1,0,0.3v1.5c0,0.1,0,0.2,0,0.3c0,0-0.1,0.1-0.2,0.1c-0.1,0-0.1,0-0.1-0.1
		c0,0-0.1-0.1-0.1-0.2c-0.1-0.4-0.3-0.6-0.5-0.6V22.4z M10.9,24.9c0.3,0,0.5-0.1,0.8-0.3c0.2-0.2,0.4-0.4,0.5-0.7
		c0-0.1,0.1-0.1,0.1-0.2s0.1,0,0.1,0c0.1,0,0.1,0,0.2,0.1c0,0,0,0.1,0,0.2v1.4h-1.6V24.9z"/>
	<path class="st2" d="M14.1,22.1v2.1c0,0.1,0,0.2,0,0.3c0,0.1,0,0.1,0.1,0.2c0,0.1,0.1,0.1,0.2,0.2c0.1,0.1,0.1,0.1,0.2,0.2
		c0.1,0,0.1,0.1,0.1,0.2c0,0.1-0.1,0.2-0.3,0.2h-0.9c-0.2,0-0.4-0.1-0.4-0.2c0,0,0-0.1,0-0.1c0,0,0.1-0.1,0.2-0.1
		c0.3-0.1,0.4-0.4,0.4-0.8v-2.8L14.1,22.1z M17.4,23.6v1.7h-1.1l-2.7-4.6c0-0.1-0.1-0.1-0.1-0.1c0,0-0.1-0.1-0.1-0.1
		c0,0-0.1,0-0.1-0.1c0,0-0.1,0-0.2-0.1c0,0-0.1,0-0.1-0.1c0,0,0-0.1,0-0.1c0-0.1,0-0.2,0.1-0.2c0,0,0.1,0,0.1,0c0.1,0,0.1,0,0.3,0
		h1.7L17.4,23.6z M17,22.3v-1.1c0-0.2,0-0.4-0.1-0.5c-0.1-0.1-0.2-0.2-0.3-0.3c-0.1-0.1-0.1-0.1-0.1-0.2c0-0.1,0.1-0.2,0.3-0.2h1
		c0.2,0,0.3,0.1,0.3,0.2c0,0.1,0,0.1,0,0.1c0,0-0.1,0.1-0.2,0.1c-0.3,0.1-0.4,0.4-0.4,0.8V23L17,22.3z"/>
	<path class="st2" d="M20.6,20.3c-0.1,0-0.2,0.1-0.3,0.2c-0.1,0.1-0.1,0.2-0.1,0.4v3.5c0,0.2,0,0.4,0.1,0.5c0,0.1,0.1,0.2,0.3,0.2
		v0.4c-0.3,0-0.6-0.1-0.9-0.3c-0.3-0.1-0.5-0.3-0.7-0.6c-0.2-0.2-0.3-0.5-0.4-0.9s-0.2-0.7-0.2-1.1c0-0.4,0.1-0.8,0.2-1.1
		c0.1-0.3,0.3-0.6,0.5-0.9c0.2-0.2,0.4-0.4,0.7-0.6c0.3-0.1,0.6-0.2,0.9-0.2V20.3z M20.9,19.9c0.3,0,0.6,0.1,0.9,0.2
		s0.5,0.3,0.7,0.6s0.3,0.5,0.5,0.9c0.1,0.3,0.2,0.7,0.2,1.1c0,0.4-0.1,0.8-0.2,1.1s-0.3,0.6-0.4,0.9c-0.2,0.2-0.4,0.4-0.7,0.6
		c-0.3,0.1-0.6,0.2-0.9,0.3V25c0.1,0,0.2-0.1,0.3-0.2c0.1-0.1,0.1-0.2,0.1-0.5v-3.5c0-0.2,0-0.3-0.1-0.4c-0.1-0.1-0.1-0.1-0.3-0.2
		V19.9z"/>
</g>
</svg>
