<?xml version="1.0" encoding="utf-8"?>
<!-- Generator: Adobe Illustrator 26.0.2, SVG Export Plug-In . SVG Version: 6.00 Build 0)  -->
<svg version="1.1" id="Layer_1" xmlns="http://www.w3.org/2000/svg" xmlns:xlink="http://www.w3.org/1999/xlink" x="0px" y="0px"
	 viewBox="0 0 30.2 29.7" style="enable-background:new 0 0 30.2 29.7;" xml:space="preserve">
<style type="text/css">
	.st0{enable-background:new    ;}
	.st1{fill:#00585C;}
	.st2{fill:#006666;}
</style>
<g class="st0">
	<path class="st1" d="M8.6,19.8c0,0.4-0.1,0.7-0.4,0.9C8,21,7.7,21.1,7.3,21.1H2.7c-0.4,0-0.7-0.1-0.9-0.4s-0.4-0.6-0.4-0.9v-4.6H3
		v4.5H7v-4.4l-5-6.1C1.6,8.8,1.4,8.3,1.4,7.8V4.1c0-0.4,0.1-0.7,0.4-0.9s0.6-0.4,0.9-0.4h4.6c0.4,0,0.7,0.1,0.9,0.4
		c0.2,0.2,0.4,0.6,0.4,0.9v4.2H7V4.3H3v3.9l5.1,6.1c0.3,0.4,0.5,0.9,0.5,1.4V19.8z"/>
	<path class="st1" d="M18.6,19.8c0,0.4-0.1,0.7-0.4,0.9c-0.2,0.2-0.5,0.4-0.9,0.4h-4.6c-0.4,0-0.7-0.1-0.9-0.4s-0.4-0.6-0.4-0.9
		v-4.6H13v4.5h3.9v-4.4l-5-6.1c-0.4-0.4-0.5-0.9-0.5-1.4V4.1c0-0.4,0.1-0.7,0.4-0.9s0.6-0.4,0.9-0.4h4.6c0.4,0,0.7,0.1,0.9,0.4
		c0.2,0.2,0.4,0.6,0.4,0.9v4.2h-1.6V4.3H13v3.9l5.1,6.1c0.3,0.4,0.5,0.9,0.5,1.4V19.8z"/>
	<path class="st1" d="M29.2,21.1h-1.7l-3.4-9.8l0.2-0.3h2.9V4.3h-4.2v16.8h-1.6V2.8h6.1c0.4,0,0.7,0.1,0.9,0.4s0.4,0.6,0.4,0.9V11
		c0,0.9-0.6,1.3-1.8,1.3c-0.1,0-0.3,0-0.5,0c-0.2,0-0.4,0-0.5,0C27.1,15.2,28.2,18.2,29.2,21.1z"/>
</g>
<g class="st0">
	<path class="st2" d="M3.6,28H3.1v-0.1c-0.2,0-0.4,0.1-0.7,0.1C2.2,28,1.9,28,1.8,28c-0.3,0-0.5-0.2-0.5-0.5V26
		c0-0.3,0.2-0.5,0.5-0.5h1.3v-1.2H1.9V25H1.4v-0.7c0-0.3,0.2-0.5,0.5-0.5h1.3c0.3,0,0.5,0.2,0.5,0.5V28z M3.1,27.4V26H1.9v1.5
		L3.1,27.4z"/>
	<path class="st2" d="M6.7,27.5c0,0.3-0.2,0.5-0.5,0.5H5c-0.3,0-0.5-0.2-0.5-0.5v-0.9h0.5v0.9h1.1v-0.8l-1.5-1.2
		c-0.1-0.1-0.2-0.3-0.2-0.4v-0.7c0-0.3,0.2-0.5,0.5-0.5h1.3c0.3,0,0.5,0.2,0.5,0.5v0.8H6.2v-0.8H5.1v0.7l1.5,1.2
		c0.1,0.1,0.2,0.3,0.2,0.4V27.5z"/>
	<path class="st2" d="M9.8,27.5c0,0.3-0.2,0.5-0.5,0.5H8.1c-0.3,0-0.5-0.2-0.5-0.5v-0.9h0.5v0.9h1.1v-0.8l-1.5-1.2
		c-0.1-0.1-0.2-0.3-0.2-0.4v-0.7c0-0.3,0.2-0.5,0.5-0.5h1.3c0.3,0,0.5,0.2,0.5,0.5v0.8H9.3v-0.8H8.1v0.7l1.5,1.2
		c0.1,0.1,0.2,0.3,0.2,0.4V27.5z"/>
	<path class="st2" d="M13,28h-0.5v-0.1c-0.2,0-0.4,0.1-0.7,0.1c-0.3,0-0.5,0.1-0.7,0.1c-0.3,0-0.5-0.2-0.5-0.5v-3.6h0.5v3.6l1.2,0
		v-3.5H13V28z"/>
	<path class="st2" d="M16.1,25.2h-0.5v-0.8l-1,0V28h-0.6v-4.1h0.6V24c0.2,0,0.4-0.1,0.6-0.1c0.2,0,0.4,0,0.6,0
		c0.3,0,0.5,0.2,0.5,0.5V25.2z"/>
	<path class="st2" d="M19.1,28h-0.5v-0.1c-0.2,0-0.4,0.1-0.7,0.1c-0.3,0-0.5,0.1-0.7,0.1c-0.3,0-0.5-0.2-0.5-0.5V26
		c0-0.3,0.2-0.5,0.5-0.5h1.3v-1.2h-1.2V25h-0.5v-0.7c0-0.3,0.2-0.5,0.5-0.5h1.3c0.3,0,0.5,0.2,0.5,0.5V28z M18.5,27.4V26h-1.2v1.5
		L18.5,27.4z"/>
	<path class="st2" d="M22.3,28h-0.6v-3.6l-1.2,0V28H20v-4.1h0.6V24c0.2,0,0.4-0.1,0.7-0.1c0.3,0,0.5,0,0.7,0c0.3,0,0.5,0.2,0.5,0.5
		V28z"/>
	<path class="st2" d="M25.5,27.5c0,0.3-0.2,0.5-0.5,0.5h-1.3c-0.3,0-0.5-0.2-0.5-0.5v-3.1c0-0.3,0.2-0.5,0.5-0.5H25
		c0.3,0,0.5,0.2,0.5,0.5v0.8h-0.5v-0.8h-1.2v3.1h1.2v-0.9h0.5V27.5z"/>
	<path class="st2" d="M28.6,27.5c0,0.3-0.2,0.5-0.5,0.5h-1.3c-0.3,0-0.5-0.2-0.5-0.5v-3.1c0-0.3,0.2-0.5,0.5-0.5h1.3
		c0.3,0,0.5,0.2,0.5,0.5v1.5L28.5,26h-1.5v1.5h1.2v-0.7h0.5V27.5z M28.1,25.6v-1.2h-1.2v1.2H28.1z"/>
</g>
</svg>
