<?xml version="1.0" encoding="utf-8"?>
<!-- Generator: Adobe Illustrator 25.4.2, SVG Export Plug-In . SVG Version: 6.00 Build 0)  -->
<svg version="1.1" id="Layer_1" xmlns="http://www.w3.org/2000/svg" xmlns:xlink="http://www.w3.org/1999/xlink" x="0px" y="0px"
	 viewBox="0 0 459.5 215.4" style="enable-background:new 0 0 459.5 215.4;" xml:space="preserve">
<style type="text/css">
	.st0{fill:#FFFFFF;stroke:#000000;stroke-miterlimit:10;}
</style>
<path class="st0" d="M113.4,0c1.1,0.1,2.2,0.3,3.3,0.4c22.5,1.7,43.9,10.6,61,25.5c18.1,15.2,30.5,36.1,35.3,59.2
	c2.2,10,2.9,20.2,2.1,30.3c-1.7,24.8-12,48.3-29.2,66.3c-0.6,0.6-0.9,1.5-0.8,2.4c1.3,12.7,11.3,22.8,24,24.2
	c0.9,0.1,1.8,0.1,2.7,0.1c1.9,0.1,3.4,1.7,3.4,3.6s-1.7,3.4-3.6,3.4c-15.6-0.2-29.1-11-32.7-26.3c0-0.1-0.1-0.2-0.1-0.4
	c-0.3,0.2-0.6,0.4-0.9,0.7c-14.3,12.4-31.7,20.8-50.3,24.2c-9.6,1.8-19.3,2.3-29,1.4c-17-1.3-33.5-6.8-47.9-15.9
	c-24.8-15.8-40.9-38-47.9-66.7c-1.4-5.9-2.3-12-2.7-18.1c0-0.2-0.1-0.5-0.2-0.7v-11.8c0.1-0.2,0.2-0.4,0.2-0.7
	c0.4-7.4,1.6-14.8,3.6-22c12-43.5,49.8-74.9,94.7-78.7c1-0.1,2-0.3,3-0.4L113.4,0z M7,107.6C6.9,163.2,52,208.3,107.7,208.4
	c55.5,0.1,100.6-44.9,100.8-100.6C208.6,52.3,163.5,7.2,107.8,7C52.4,6.8,7.1,52,7,107.6z"/>
<path class="st0" d="M51.2,58.8c16.9,0,30.6,13.6,30.6,30.5c0,16.9-13.6,30.6-30.5,30.6c-16.9,0-30.6-13.6-30.6-30.5
	c0,0,0-0.1,0-0.1C20.7,72.4,34.3,58.8,51.2,58.8z M59.5,67.3c-8.3-3.2-17.6-1.4-24.2,4.5c-7.1,6.4-9.6,16.5-6.3,25.5
	c2.6,7.2,10.4,14.4,15.9,14.6C43.8,95.8,49,79.8,59.5,67.3L59.5,67.3z M52,112.9c13-0.4,23.2-11.3,22.7-24.3
	c-0.2-7-3.6-13.5-9.1-17.8C55.3,82.9,50.8,96.9,52,112.9z"/>
<path class="st0" d="M72.9,125.2c16.9,0.1,30.5,13.8,30.5,30.7s-13.8,30.5-30.7,30.5c-16.8-0.1-30.5-13.7-30.5-30.6
	c-0.1-16.8,13.5-30.5,30.4-30.6C72.7,125.2,72.8,125.2,72.9,125.2z M54.3,141.2c-5.2,6-6.9,15.5-3.3,24c3.8,8.8,12.5,14.4,22,14.2
	c8.2-0.2,14.6-3.8,19.5-10.6C76.8,164.8,63.1,154.9,54.3,141.2L54.3,141.2z M95.3,162.4c3.7-12.4-3.4-25.5-15.8-29.2
	c-6.8-2-14.2-0.9-20,3.2C67.5,149.5,80.4,158.9,95.3,162.4L95.3,162.4z"/>
<path class="st0" d="M107.8,17.8c16.9,0,30.5,13.8,30.5,30.7c0,16.9-13.8,30.5-30.7,30.5c-16.9,0-30.5-13.8-30.5-30.7
	c0,0,0-0.1,0-0.1C77.2,31.3,90.9,17.7,107.8,17.8z M131.4,49.4c0-9-3.4-16.2-11-20.9c-8.6-5.3-17.4-5.2-25.8,0.4
	c-7.2,4.8-10.5,11.8-10.4,20.6C99.3,43.3,116.2,43.3,131.4,49.4L131.4,49.4z M129.9,56.3c-14.2-6.1-30.2-6.1-44.3,0
	C90,68.6,103.4,75,115.7,70.6C122.3,68.2,127.5,63,129.9,56.3z"/>
<path class="st0" d="M142.6,186.3c-16.9,0-30.6-13.7-30.5-30.6c0-16.9,13.7-30.6,30.6-30.5c16.9,0,30.6,13.7,30.5,30.6
	c0,0.1,0,0.2,0,0.3C173,172.9,159.3,186.4,142.6,186.3z M161.1,140.9c-8.7,13.8-22.4,23.8-38.3,27.8c5.1,7,11.8,10.6,20.4,10.6
	c9.4-0.2,17.7-5.9,21.2-14.6C167.8,156.3,166.5,148.4,161.1,140.9z M155.8,136.2c-10.7-7.3-25.3-4.6-32.7,6.1
	c-4,5.8-5.2,13.2-3.2,20C135,158.8,147.9,149.4,155.8,136.2z"/>
<path class="st0" d="M164.3,58.8c16.9,0.1,30.5,13.8,30.4,30.7c-0.1,16.9-13.8,30.5-30.7,30.4s-30.5-13.8-30.4-30.7
	c0-0.2,0-0.3,0-0.5C133.8,72.3,147.8,58.6,164.3,58.8z M149.9,70.5c-8.4,6.5-11.6,17.7-7.6,27.6c3.4,8.7,11.7,14.5,21.1,14.7
	c0-0.6,0.1-1.2,0.1-1.7c0.4-6-0.2-12-1.7-17.8c-0.7-1.8,0.3-3.8,2.1-4.5c0.1,0,0.3-0.1,0.4-0.1c1.9-0.5,3.6,0.7,4.2,2.9
	c1.7,6.4,2.3,13,2,19.6c0,0.3,0,0.6,0,1c9.2-3.1,15.1-9.1,16.8-18.5s-1.4-17.3-8.9-23.2c-6.8-5.2-14.4-6-22.5-3.3
	c0.3,0.3,0.4,0.6,0.6,0.8c1.9,2.8,3.9,5.5,5.7,8.3c1,1.6,0.6,3.7-0.9,4.7c-0.3,0.2-0.6,0.3-0.9,0.4c-1.6,0.5-3.4-0.3-4.2-1.8
	C154.1,76.6,152,73.7,149.9,70.5z"/>
<path class="st0" d="M107.8,89.6c10,0,18,8.1,18,18.1c0,10-8.1,18-18.1,18c-10,0-18-8.1-18-18.1c0-9.9,8.1-18,18-18
	C107.7,89.6,107.7,89.6,107.8,89.6z M118.8,107.4c-0.2-6.1-5.2-11-11.3-10.8c-6.3,0.3-11.2,5.4-10.9,11.4
	c0.3,6.2,5.5,11.1,11.4,10.8C114.1,118.6,118.9,113.5,118.8,107.4z"/>
<g>
	<g>
		<path class="st0" d="M253.2,106.4c-0.9,0.6-1.9,0.8-2.9,0.8c-0.9,0.1-1.8-0.3-2.5-0.9c-0.5-0.5-0.9-1.1-1-1.8c0.3-3,0.5-6,0.4-9.1
			c0-2.4-0.1-6.1-0.4-11.1c-0.3-4.7-0.5-8.9-0.5-12.5c0-2,0.1-4,0.3-6.1c0.1-0.8,0.5-1.6,1.2-2.2c0.9-0.8,2.1-1.3,3.3-1.4
			c5.6-0.5,11.2-0.8,16.8-0.7h2.3c1.7,0,3.5,0.3,5.1,0.9c1.5,0.3,2.6,1.7,2.6,3.2c0,0.9-0.2,1.7-0.7,2.4c-0.7,0.7-1.7,1-2.7,0.9
			c-0.7,0-1.4-0.1-2.2-0.2l-1.7-0.2c-1.4-0.3-2.8-0.4-4.2-0.4c-4.2-0.1-8.5,0.3-12.6,1.2c0,1.6,0,4.2,0.1,7.7l0.1,4.6
			c2.2,0,4.5-0.1,6.7-0.3c2-0.2,3.1-0.3,3.4-0.4c2.5-0.3,4.1-0.4,5-0.4c1,0,2,0.2,2.9,0.8c0.8,0.5,1.2,1.4,1.2,2.3
			c0,2.4-1.7,3.6-5,3.6c-0.8,0-1.5,0-2.2,0.1l-1.6,0.2c-1.4,0.2-2.7,0.3-4.1,0.3c-2.2,0-4.1,0.1-5.6,0.2c0,1.8,0.1,3.7,0.2,5.6
			c0,0.6,0,1.6,0.1,2.9s0.1,2.5,0.1,3.5s0,1.8-0.1,2.5c0,0.8-0.2,1.5-0.4,2.2C254.4,105.3,253.9,106,253.2,106.4z"/>
	</g>
	<g>
		<path class="st0" d="M310.5,106.3c-0.9,0.7-2,1-3.1,1.1c-1.5,0.1-3-0.2-4.4-0.7c-1.2-0.6-2.3-1.4-3-2.6c-1.5,1.2-3.2,2.1-5.1,2.5
			c-2,0.5-4,0.8-6,0.8c-2.7,0.1-5.3-0.7-7.3-2.4c-1.9-1.6-2.8-4-2.8-7.1c0-1.3,0.3-2.6,1-3.7c0.8-1.2,1.8-2.2,3-3
			c1.5-0.9,3.1-1.7,4.8-2.1c1.8-0.5,3.7-0.8,5.5-0.8c1.2,0,2.4,0.2,3.6,0.6c1.1,0.3,2.2,0.7,3.2,1.2v-1.1c0-2.6-0.6-4.4-1.9-5.4
			c-1.2-1-3.3-1.5-6-1.5c-0.8,0-1.6,0.2-2.4,0.5c-0.9,0.4-1.8,0.9-2.7,1.4c-1.2,0.7-2.5,1-3.8,1.1c-0.4,0-0.8-0.3-1.2-0.9
			c-0.3-0.5-0.5-1-0.6-1.6c0-1.5,0.8-2.8,2-3.6c1.4-1.1,3-1.8,4.7-2.3c1.6-0.5,3.2-0.7,4.9-0.8c1.7,0,3.4,0.3,5,0.8
			c1.7,0.5,3.2,1.2,4.6,2.3c1.4,1.2,2.5,2.7,3.3,4.4c0.8,1.7,1.2,3.6,1.2,5.4c0,0.6,0,1.6-0.1,2.8s-0.1,2.5-0.1,3.5
			c0,0.4,0,1.1-0.1,1.9c-0.1,1.1-0.1,1.9-0.1,2.5c0,0.6,0.2,1.1,0.6,1.5c0.4,0.4,0.9,0.6,1.5,0.6l2-0.1c0.5,0,0.9,0.2,1.2,0.6
			c0.3,0.4,0.5,0.9,0.4,1.4C312.2,104.8,311.5,105.8,310.5,106.3z M294.2,101.2c1.7-0.6,3.4-1.4,5-2.4c0.2-1.1,0.3-2.2,0.4-3.2
			c-2-1.1-4.3-1.7-6.6-1.9c-1.8,0-3.6,0.4-5.2,1.1c-1.5,0.7-2.4,2.2-2.3,3.8c0,0.9,0.4,1.8,1.2,2.3c0.7,0.6,1.5,0.9,2.4,0.9
			C290.8,101.9,292.5,101.6,294.2,101.2z"/>
		<path class="st0" d="M325,62.2c1.2,0.7,1.9,2,1.9,3.3c0,1.1-0.6,2.1-1.5,2.6c-1.1,0.7-2.4,1-3.7,1c-1.1,0.1-2.1-0.3-2.9-1.1
			c-0.5-0.6-0.8-1.4-0.8-2.2c0-1.2,0.1-2.4,0.5-3.6c0.3-0.9,1.2-1.5,2.2-1.4C322.2,61,323.7,61.5,325,62.2z M326.4,92.8v2.1
			c0,1.9,0.1,3.6,0.2,5.3s0.3,3.3,0.5,5c0,0.7-0.4,1.2-1,1.5c-0.5,0.4-1.2,0.7-1.9,0.7c-0.9,0-1.9-0.2-2.8-0.5
			c-0.7-0.2-1.3-0.7-1.7-1.3c-0.3-1.4-0.4-2.7-0.4-4.1c0-3.9-0.1-8.3-0.4-13.2c-0.2-4.3-0.3-7.3-0.3-9.1c0-0.9,0.5-1.8,1.3-2.2
			c0.8-0.6,1.7-0.9,2.7-0.9c1.1-0.1,2.1,0.2,2.9,0.9c0.6,0.9,0.9,1.9,0.8,2.9L326.4,92.8z"/>
		<path class="st0" d="M335.4,82.2c-1.3-0.2-2.3-1.3-2.2-2.6c0-0.4,0.1-0.7,0.2-1.1c0.2-0.4,0.4-0.7,0.8-1c0.6-0.6,2.3-0.9,5-0.9
			c0.4-1.9,0.6-3.8,0.6-5.7c0-0.7,0-1.3-0.1-1.9s-0.1-0.9-0.1-1.2c-0.1-0.9,0.4-1.9,1.2-2.4c0.8-0.5,1.7-0.8,2.7-0.8
			c1-0.1,1.9,0.2,2.5,0.9c0.6,1.1,0.8,2.3,0.7,3.4c0,2.5-0.2,4.9-0.6,7.3c0.8,0,1.8-0.1,3.2-0.2c1.8-0.1,3.1-0.1,4-0.1
			c0.8,0,1.5,0.2,2.1,0.6c0.6,0.4,0.9,1,0.9,1.7c0.2,1.6-0.9,3-2.5,3.3c-2.7,0.5-5.5,0.8-8.3,0.8c-0.1,1.9-0.2,3.9-0.2,6.1
			c0,2.8,0.2,5.7,0.6,8.5c0.2,1.2,0.7,2.4,1.5,3.3c0.9,0.7,2,1.1,3.1,1c0.9,0,1.7-0.2,2.5-0.6c0.5-0.3,1-0.5,1.6-0.5
			c0.6,0,1.1,0.2,1.5,0.7c0.3,0.5,0.5,1.1,0.5,1.7c-0.1,1.4-0.9,2.7-2.2,3.3c-1.7,0.9-3.6,1.4-5.5,1.3c-1.5,0-2.9-0.4-4.2-1
			c-1.3-0.6-2.5-1.5-3.6-2.5c-0.3-0.5-0.6-1.1-0.8-1.7c-0.4-1-0.7-2-1-3.1c-0.6-3.1-0.8-6.3-0.7-9.5c0-1.8,0.1-4.2,0.3-7.1
			L335.4,82.2z"/>
	</g>
	<g>
		<path class="st0" d="M290.4,149.4c1,0.9,1.5,1.6,1.5,2.3c0,2.9-0.1,6.9-0.3,12c0,1.2-0.1,2.8-0.1,4.5s-0.1,3.8-0.1,6.1
			c0,7.3,0.4,12.7,1.3,16.1c0,1-0.5,2-1.4,2.5c-0.8,0.5-1.7,0.7-2.6,0.8c-1.9,0-3.2-0.7-3.8-2c-0.7-1.8-1-3.8-0.9-5.8
			c0-9.3,0.1-17.8,0.3-25.6c-5.5,6.1-9.8,11.3-12.9,15.5l-1.3,0.9c-0.5,0.6-1.2,1-2,1.1c-1.1,0-2.2-0.3-3.1-0.9
			c-0.9-0.8-1.7-1.7-2.4-2.7l-3.5-4.9c-2.4-3.3-4.2-5.9-5.3-7.6c0,4.4,0.2,10.4,0.6,18c0.3,4.4,0.5,7.7,0.5,9.9c0,1-0.3,2.1-0.9,2.9
			c-0.7,0.8-1.7,1.3-2.7,1.2c-1.1,0-2.1-0.2-3.1-0.7c-0.8-0.4-1.3-1.3-1.3-2.2c0-0.8,0.1-2.2,0.1-4c0-3.7-0.1-8.3-0.4-13.7l-0.1-3.9
			l-0.1-5c-0.1-1.5-0.1-3.2-0.1-5.2s-0.1-4.2-0.1-6.5c0-2.9,1.6-4.3,4.7-4.3c1,0,2,0.3,2.9,0.7c0.9,0.4,1.7,1.2,2.2,2.1
			c0.4,1.7,1.8,4.5,4.2,8.4s4.8,7.5,7.2,10.9c1.6-2.1,3.3-4.1,5.2-6.1c2-2.1,4-4.2,5.7-6.6c1.5-2,3.2-4.4,4.9-7.3
			c0.5-0.6,1.2-1.1,1.9-1.5c0.8-0.4,1.7-0.6,2.6-0.6C288.8,148.2,289.7,148.7,290.4,149.4z"/>
		<path class="st0" d="M332.6,192.8c-0.9,0.6-2,1-3.1,1.1c-1.5,0.1-3-0.2-4.4-0.7c-1.2-0.6-2.3-1.4-3-2.6c-1.5,1.2-3.2,2.1-5.1,2.5
			c-2,0.5-4,0.8-6,0.8c-2.7,0.1-5.3-0.7-7.3-2.4c-1.9-1.6-2.9-4-2.9-7.1c0-1.3,0.4-2.6,1.1-3.7c0.8-1.2,1.8-2.2,3-3
			c1.5-0.9,3.1-1.7,4.8-2.1c1.8-0.5,3.7-0.8,5.5-0.8c1.2,0,2.4,0.2,3.6,0.6c1.1,0.3,2.2,0.7,3.2,1.2v-1.1c0-2.6-0.6-4.4-1.9-5.4
			c-1.3-1-3.3-1.5-6-1.5c-0.8,0-1.7,0.2-2.4,0.5c-0.9,0.4-1.8,0.9-2.7,1.4c-1.2,0.7-2.5,1-3.8,1.1c-0.4,0-0.8-0.3-1.2-0.9
			c-0.3-0.5-0.5-1-0.6-1.6c0-1.5,0.8-2.8,2-3.6c1.4-1.1,3-1.8,4.7-2.3c1.6-0.5,3.2-0.7,4.9-0.8c1.7,0,3.4,0.3,5,0.8
			c1.7,0.5,3.2,1.2,4.6,2.3c1.4,1.2,2.5,2.7,3.3,4.4c0.8,1.7,1.2,3.6,1.2,5.4c0,0.6,0,1.6-0.1,2.8s-0.1,2.5-0.1,3.5
			c0,0.6-0.1,1.3-0.1,1.9c-0.1,1.1-0.1,1.9-0.1,2.5c0,0.6,0.2,1.1,0.6,1.5c0.4,0.4,1,0.6,1.5,0.6l2-0.1c0.5,0,0.9,0.2,1.2,0.6
			c0.3,0.4,0.4,0.9,0.4,1.4C334.3,191.2,333.7,192.3,332.6,192.8z M316.3,187.6c1.7-0.6,3.4-1.4,5-2.4c0.2-1.1,0.3-2.2,0.4-3.2
			c-2-1.1-4.3-1.7-6.5-1.9c-1.8,0-3.6,0.3-5.3,1.1c-1.5,0.7-2.4,2.2-2.3,3.8c0,0.9,0.5,1.8,1.2,2.3c0.7,0.6,1.5,0.9,2.4,0.9
			C312.9,188.3,314.6,188,316.3,187.6L316.3,187.6z"/>
		<path class="st0" d="M347.1,148.6c1.2,0.7,1.9,2,1.9,3.4c0,1.1-0.6,2.1-1.5,2.6c-1.1,0.7-2.4,1-3.7,1c-1.1,0.1-2.2-0.3-2.9-1.1
			c-0.5-0.6-0.8-1.4-0.8-2.2c0-1.2,0.1-2.4,0.5-3.6c0.3-0.9,1.2-1.5,2.2-1.4C344.3,147.4,345.8,147.9,347.1,148.6z M348.5,179.2v2.1
			c0,1.9,0.1,3.6,0.2,5.3s0.3,3.3,0.5,5c0,0.7-0.4,1.2-1,1.5c-0.5,0.4-1.2,0.7-1.9,0.7c-0.9,0-1.9-0.2-2.8-0.5
			c-0.7-0.2-1.3-0.7-1.7-1.3c-0.3-1.4-0.4-2.7-0.4-4.1c0-3.9-0.1-8.4-0.4-13.2c-0.2-4.3-0.3-7.3-0.3-9.1c0-0.9,0.5-1.8,1.3-2.2
			c0.8-0.6,1.7-0.9,2.7-0.9c1.1-0.1,2.1,0.2,2.9,0.9c0.6,0.9,0.9,1.9,0.8,2.9L348.5,179.2z"/>
		<path class="st0" d="M379.9,178.7c1,0.5,1.8,1.3,2.3,2.3c0.4,1.1,0.6,2.4,0.6,3.6c0,1.7-0.5,3.3-1.5,4.6c-1,1.3-2.4,2.4-3.9,3.1
			c-1.3,0.6-2.8,1-4.2,1.2c-1.3,0.2-2.6,0.4-3.9,0.4c-1.2,0-2.5-0.2-3.7-0.4c-1.1-0.2-2.1-0.4-3.1-0.8c-1.5-0.8-2.8-1.9-3.9-3.2
			c-1-1-1.6-2.4-1.6-3.8c0-0.9,0.3-1.7,0.9-2.3c0.7-0.6,1.6-0.9,2.5-0.8c0.5,0,1.1,0.2,1.5,0.5c0.4,0.3,0.8,0.7,1.1,1.1
			c0.5,1.2,1.5,2.2,2.7,2.8c1.2,0.6,2.5,0.9,3.8,0.9c1.6,0,3.2-0.3,4.7-0.8c1.4-0.6,2.2-1.3,2.2-2.3c0-0.4-0.1-0.7-0.3-1.1
			c-0.3-0.3-0.6-0.6-0.9-0.8c-0.9-0.6-1.9-1-3-1.2l-2.6-0.6c-2-0.4-3.9-1.1-5.8-1.9c-1.7-0.8-3.2-1.9-4.5-3.2
			c-1.1-1.3-1.7-3.1-1.7-4.8c0.1-1.5,0.6-2.9,1.4-4.1c0.8-1.3,1.9-2.3,3.2-3c1.4-0.5,2.9-0.8,4.4-1.1c1.4-0.3,2.7-0.5,4.1-0.6
			c1.2,0,2.4,0.1,3.6,0.3c1,0.1,2.1,0.5,3,1c1.2,0.7,2.2,1.5,3.2,2.4c0.8,0.7,1.2,1.8,1.2,2.8c0,0.6-0.1,1.2-0.4,1.7
			c-0.1,0.5-0.4,0.9-0.9,1.1c-0.8,0.3-1.7,0.5-2.5,0.5c-0.4,0-0.8-0.1-1-0.4c-0.4-0.4-0.7-0.7-1-1.1c-0.3-0.6-0.9-1.1-1.5-1.4
			c-0.6-0.1-1.4-0.3-2.5-0.5c-0.7-0.2-1.5-0.3-2.2-0.3c-1.2,0-2.4,0.3-3.4,0.9c-1.2,0.6-1.8,1.3-1.8,2.2c0,0.4,0.2,0.8,0.5,1
			c0.4,0.2,0.8,0.5,1.1,0.6c0.4,0.2,0.7,0.3,0.8,0.4c1.1,0.5,2.2,0.9,3.4,1.2c1.2,0.3,2,0.6,2.3,0.6c1.8,0.3,3.6,0.9,5.2,1.8
			C378,177.6,378.8,178,379.9,178.7z"/>
		<path class="st0" d="M418.8,173.3c0.2,1.1,0.3,2.3,0.4,3.4c0,1.7-0.3,3.4-0.6,5c-0.3,1.4-0.6,2.7-1.1,4c-2.6,5.4-7.6,8.1-15,8.1
			c-2.5,0-4.9-0.9-6.9-2.3c-2.1-1.4-3.7-3.3-4.8-5.5l-0.5-1.4c0-0.2-0.3-0.9-0.8-2.2c-0.4-0.9-0.6-1.9-0.7-2.9
			c0.1-2.3,0.6-4.7,1.4-6.8c0.8-2.2,1.9-4.3,3.3-6.2c1.2-1.4,2.9-2.4,4.7-2.9c2-0.7,4-1.1,6.1-1.2c2.8-0.1,5.6,0.5,8,1.9
			c2.3,1.6,4.2,3.7,5.5,6.2C418.4,171.3,418.7,172.3,418.8,173.3z M411.8,180.2c0.1-1,0.2-2,0.2-3c0-1.4-0.3-2.8-0.8-4.1
			c-0.5-1.3-1.2-2.5-2.2-3.4c-0.1-0.2-0.3-0.3-0.5-0.5c-0.4-0.3-0.9-0.5-1.4-0.6c-0.8-0.2-1.6-0.3-2.4-0.3c-1.7,0-3.4,0.5-4.8,1.6
			c-1.3,1.1-2.3,2.5-2.9,4.1c-0.6,1.5-1,3.2-1,4.8c0.1,0.9,0.2,1.8,0.4,2.7c0.2,0.9,0.4,1.7,0.6,2.6c0.6,0.9,1.4,1.7,2.2,2.3
			c1.1,0.9,2.4,1.3,3.7,1.3c1.8,0.1,3.6-0.4,5.1-1.5c1.3-1.1,2.4-2.6,3-4.2C411.5,181.5,411.7,180.8,411.8,180.2z"/>
		<path class="st0" d="M424.6,167.3c-0.3-0.5-0.4-1.1-0.4-1.7c0-0.8,0.3-1.6,1-2.1c0.6-0.5,1.4-0.8,2.3-0.8c1.6,0,3.1,0.4,4.4,1.3
			c1.2,0.9,2.2,2.2,2.7,3.6c0.8-1.8,2.3-3.2,4-4.1c2.2-0.8,4.5-1.2,6.8-1.1c1.3,0,2.5,0.4,3.6,1c1.2,0.7,2.4,1.6,3.4,2.6
			c0.9,1.2,1.6,2.5,2.1,3.9c0.5,1.3,0.8,2.8,0.9,4.2c0,0.7,0,1.9-0.1,3.5s-0.1,3.1-0.1,4.1c0,3.4,0.6,5.4,1.9,6.2
			c0.4,0.1,0.7,0.3,1.1,0.4c0.4,0.1,0.8,0.2,1.2,0.4c0.2,0.1,0.4,0.4,0.4,0.6c0.1,1.1-0.4,2.2-1.3,2.8c-0.9,0.7-2,1.1-3.2,1.1
			c-1.6,0.1-3.2-0.5-4.4-1.5c-1.2-1.3-2-2.9-2.2-4.6c-0.3-1.1-0.4-2.2-0.4-3.4c0-0.8,0-2.1,0.1-4c0.1-1.4,0.2-3,0.2-4.6
			c0-1.6-0.5-3.1-1.4-4.4c-0.9-1.3-2.4-2-4-1.9c-1.1,0-2.2,0.3-3.2,0.9c-1,0.5-1.8,1.2-2.3,2.2c-0.7,1.4-1.2,3-1.4,4.5
			c-0.6,2.8-0.8,5.7-0.9,8.6c0,0.7,0,2,0.1,3.9v1c0,0.5-0.1,1-0.2,1.6c-0.1,0.5-0.3,0.9-0.6,1.3c-0.3,0.3-0.7,0.5-1.1,0.6
			c-0.4,0.2-0.9,0.3-1.4,0.3c-0.9-0.1-1.8-0.4-2.5-0.9c-0.8-0.4-1.5-1.1-1.8-1.9l-0.1-1c0-0.6,0.1-1.2,0.1-1.7
			c0.5-2.9,0.8-5.8,0.9-8.8c0-1.1,0-1.9-0.1-2.5l-0.1-3.3c0-1-0.3-1.9-0.8-2.8c-0.6-1-1.4-1.8-2.2-2.6
			C425.2,168,424.9,167.7,424.6,167.3z"/>
	</g>
</g>
</svg>
